<?xml version="1.0" encoding="utf-8"?>
<!-- Generator: Adobe Illustrator 27.2.0, SVG Export Plug-In . SVG Version: 6.00 Build 0)  -->
<svg version="1.1" id="レイヤー_1" xmlns="http://www.w3.org/2000/svg" xmlns:xlink="http://www.w3.org/1999/xlink" x="0px"
	 y="0px" viewBox="0 0 16 15" style="enable-background:new 0 0 16 15;" xml:space="preserve">
<style type="text/css">
	.st0{fill:#FFFFFF;}
	.st1{fill:#26DD56;}
	.st2{fill:#000066;}
</style>
<g>
	<path class="st0" d="M16,6.5c0,3.25-2.93,5.94-6.76,6.42C8.84,12.97,9.42,15,9,15c-0.46,0-1.91-2.03-2.35-2.09
		C2.88,12.39,0,9.72,0,6.5C0,2.91,3.58,0,8,0S16,2.91,16,6.5z"/>
</g>
<g>
	<path class="st1" d="M5.96,7.32V3.92c0-0.42,0.19-0.64,0.71-0.64c0.64,0,0.69,0.39,0.69,0.64v5c0,0.5-0.38,0.66-0.96,0.66
		c-0.52,0-0.8-0.24-0.93-0.52L3.82,5.23l0.01,0.31v3.38c0,0.43-0.2,0.65-0.71,0.65c-0.64,0-0.69-0.39-0.69-0.65v-5
		c0-0.48,0.34-0.66,0.96-0.66c0.54,0,0.82,0.27,0.93,0.53l1.66,3.82L5.96,7.32z"/>
	<path class="st2" d="M12.17,7.32V3.92c0-0.42,0.19-0.64,0.71-0.64c0.64,0,0.69,0.39,0.69,0.64v5c0,0.5-0.38,0.66-0.96,0.66
		c-0.52,0-0.8-0.24-0.93-0.52l-1.66-3.82l0.01,0.31v3.38c0,0.43-0.2,0.65-0.71,0.65c-0.64,0-0.69-0.39-0.69-0.65v-5
		c0-0.48,0.33-0.66,0.96-0.66c0.54,0,0.82,0.27,0.93,0.53l1.66,3.82L12.17,7.32z"/>
</g>
</svg>
